    <svg xmlns="http://www.w3.org/2000/svg">
  <symbol id="dashka" viewBox="0 0 578.106 578.106">
  <path d="M577.83,456.128c1.225,9.385-1.635,17.545-8.568,24.48l-81.396,80.781
			c-3.672,4.08-8.465,7.551-14.381,10.404c-5.916,2.857-11.729,4.693-17.439,5.508c-0.408,0-1.635,0.105-3.676,0.309
			c-2.037,0.203-4.689,0.307-7.953,0.307c-7.754,0-20.301-1.326-37.641-3.979s-38.555-9.182-63.645-19.584
			c-25.096-10.404-53.553-26.012-85.376-46.818c-31.823-20.805-65.688-49.367-101.592-85.68
			c-28.56-28.152-52.224-55.08-70.992-80.783c-18.768-25.705-33.864-49.471-45.288-71.299
			c-11.425-21.828-19.993-41.616-25.705-59.364S4.59,177.362,2.55,164.51s-2.856-22.95-2.448-30.294
			c0.408-7.344,0.612-11.424,0.612-12.24c0.816-5.712,2.652-11.526,5.508-17.442s6.324-10.71,10.404-14.382L98.022,8.756
			c5.712-5.712,12.24-8.568,19.584-8.568c5.304,0,9.996,1.53,14.076,4.59s7.548,6.834,10.404,11.322l65.484,124.236
			c3.672,6.528,4.692,13.668,3.06,21.42c-1.632,7.752-5.1,14.28-10.404,19.584l-29.988,29.988c-0.816,0.816-1.53,2.142-2.142,3.978
			s-0.918,3.366-0.918,4.59c1.632,8.568,5.304,18.36,11.016,29.376c4.896,9.792,12.444,21.726,22.644,35.802
			s24.684,30.293,43.452,48.653c18.36,18.77,34.68,33.354,48.96,43.76c14.277,10.4,26.215,18.053,35.803,22.949
			c9.588,4.896,16.932,7.854,22.031,8.871l7.648,1.531c0.816,0,2.145-0.307,3.979-0.918c1.836-0.613,3.162-1.326,3.979-2.143
			l34.883-35.496c7.348-6.527,15.912-9.791,25.705-9.791c6.938,0,12.443,1.223,16.523,3.672h0.611l118.115,69.768
			C571.098,441.238,576.197,447.968,577.83,456.128z"/>
  </symbol>

    <symbol id="dimka" viewBox="0 0 32.029 32.029">
 <path d="M30.988,2.617l-0.899-0.899c-1.108-1.106-2.711-1.691-4.631-1.691c-4.745,0-11.097,3.397-16.58,8.871
				C0.917,16.846-2.244,26.146,1.686,30.067l0.899,0.897c0.671,0.668,1.562,1.037,2.512,1.037c0.95,0,1.841-0.369,2.513-1.039
				l3.598-3.59c1.384-1.381,1.386-3.631,0-5.014l-0.899-0.898c-0.958-0.957-0.518-3.442,3.597-7.55
				c3.504-3.496,5.532-4.019,6.43-4.019c0.476,0,0.846,0.141,1.135,0.43l0.898,0.896c1.341,1.34,3.685,1.342,5.024,0l3.595-3.59
				c0.674-0.669,1.042-1.56,1.042-2.507C32.029,4.174,31.66,3.286,30.988,2.617z M29.561,6.206l-3.598,3.59
				c-0.58,0.578-1.589,0.58-2.168,0l-0.898-0.896c-0.668-0.667-1.553-1.021-2.562-1.021c-2.148,0-4.792,1.551-7.857,4.609
				c-6.325,6.312-4.622,9.376-3.597,10.399l0.898,0.896c0.599,0.598,0.599,1.568,0,2.164l-3.596,3.59
				c-0.582,0.578-1.591,0.578-2.17,0l-0.897-0.896c-3.025-3.021,0.269-11.408,7.192-18.318c5.041-5.031,10.987-8.281,15.151-8.281
				c1.394,0,2.471,0.37,3.203,1.103l0.897,0.896c0.29,0.29,0.449,0.675,0.449,1.083C30.011,5.532,29.851,5.916,29.561,6.206z"/>
  </symbol>
    </svg>