<?xml version="1.0" encoding="utf-8"?><svg xmlns="http://www.w3.org/2000/svg" xmlns:xlink="http://www.w3.org/1999/xlink"><symbol viewBox="0 0 0 0" id="sprite" xmlns="http://www.w3.org/2000/svg"/><symbol viewBox="0 0 0 0" id="sprite-beef" xmlns="http://www.w3.org/2000/svg"/><symbol viewBox="0 0 0 0" id="sprite-buns" xmlns="http://www.w3.org/2000/svg"/><symbol viewBox="0 0 0 0" id="sprite-burger" xmlns="http://www.w3.org/2000/svg"/><symbol viewBox="0 0 0 0" id="sprite-cheese" xmlns="http://www.w3.org/2000/svg"/><symbol viewBox="0 0 0 0" id="sprite-cucumber" xmlns="http://www.w3.org/2000/svg"/><symbol viewBox="0 0 0 0" id="sprite-hand" xmlns="http://www.w3.org/2000/svg"/><symbol viewBox="0 0 0 0" id="sprite-kkal" xmlns="http://www.w3.org/2000/svg"/><symbol viewBox="0 0 0 0" id="sprite-logo" xmlns="http://www.w3.org/2000/svg"/><symbol viewBox="0 0 0 0" id="sprite-map" xmlns="http://www.w3.org/2000/svg"/><symbol viewBox="0 0 0 0" id="sprite-meat" xmlns="http://www.w3.org/2000/svg"/><symbol viewBox="0 0 0 0" id="sprite-menu" xmlns="http://www.w3.org/2000/svg"/><symbol viewBox="0 0 0 0" id="sprite-natural" xmlns="http://www.w3.org/2000/svg"/><symbol viewBox="0 0 0 0" id="sprite-phone" xmlns="http://www.w3.org/2000/svg"/><symbol viewBox="0 0 0 0" id="sprite-play" xmlns="http://www.w3.org/2000/svg"/><symbol viewBox="0 0 0 0" id="sprite-salad" xmlns="http://www.w3.org/2000/svg"/><symbol viewBox="0 0 0 0" id="sprite-sauce" xmlns="http://www.w3.org/2000/svg"/><symbol viewBox="0 0 0 0" id="sprite-scroll" xmlns="http://www.w3.org/2000/svg"/><symbol viewBox="0 0 0 0" id="sprite-socials" xmlns="http://www.w3.org/2000/svg"/><symbol viewBox="0 0 0 0" id="sprite-volume" xmlns="http://www.w3.org/2000/svg"/><symbol viewBox="0 0 37.45 31.21" id="twitter" xmlns="http://www.w3.org/2000/svg"><path d="M36.421.577a15.112 15.112 0 01-4.884 1.909A7.575 7.575 0 0025.93 0c-4.24 0-7.682 3.528-7.682 7.879 0 .618.066 1.217.198 1.794-6.385-.329-12.047-3.462-15.839-8.235a8.02 8.02 0 00-1.04 3.966c0 2.731 1.356 5.144 3.418 6.557a7.547 7.547 0 01-3.481-.981v.096c0 3.819 2.648 7.004 6.167 7.725a7.292 7.292 0 01-2.025.277c-.495 0-.979-.047-1.447-.139.979 3.129 3.815 5.408 7.179 5.469a15.172 15.172 0 01-9.544 3.375c-.619 0-1.232-.037-1.833-.109a21.388 21.388 0 0011.778 3.537c14.136 0 21.863-12.004 21.863-22.417 0-.343-.006-.685-.021-1.021a15.749 15.749 0 003.832-4.078 15.04 15.04 0 01-4.412 1.24 7.861 7.861 0 003.38-4.358"/></symbol></svg>